<?xml version="1.0" ?>
<!-- Uploaded to: SVG Repo, www.svgrepo.com, Generator: SVG Repo Mixer Tools -->
<svg width="800px" height="800px" viewBox="0 0 32 32" id="Layer_1" version="1.1" xml:space="preserve" xmlns="http://www.w3.org/2000/svg" xmlns:xlink="http://www.w3.org/1999/xlink">
<style type="text/css">
	.st0{fill:#00BBB4;}
	.st1{fill:#1B75BC;}
	.st2{fill:#F15A29;}
</style>
<g>
<path class="st1" d="M26.1923828,21.6762695H8.0234375l3.8295898-19.4833984   C11.8659668,2.1270752,11.8521118,2.0645752,11.8519897,2H9.8522339H2.5c-0.5522461,0-1,0.4477539-1,1s0.4477539,1,1,1h6.9591064   L5.8261719,22.4833984c-0.0576172,0.293457,0.019043,0.597168,0.2089844,0.828125s0.4736328,0.3647461,0.7724609,0.3647461   h19.3847656c0.5522461,0,1-0.4477539,1-1S26.7446289,21.6762695,26.1923828,21.6762695z"/>
<circle class="st1" cx="19.6256008" cy="28" r="2"/>
<circle class="st1" cx="12.2049274" cy="28" r="2"/>
<path class="st1" d="M10.871582,2L8.119873,16h15.4137573L30.5,2H10.871582z M21.7890625,7.6450195l-4.1240234,4.1240234   c-0.1953125,0.1953125-0.4511719,0.2929688-0.7070313,0.2929688s-0.5117188-0.0976563-0.7070313-0.2929688L14.375,9.8930664   c-0.390625-0.390625-0.390625-1.0234375,0-1.4140625s1.0234375-0.390625,1.4140625,0l1.1689453,1.1689453L20.375,6.230957   c0.390625-0.390625,1.0234375-0.390625,1.4140625,0S22.1796875,7.2543945,21.7890625,7.6450195z"/>
</g>
</svg>