<?xml version="1.0" encoding="utf-8"?>
<!-- Generator: Adobe Illustrator 25.4.1, SVG Export Plug-In . SVG Version: 6.00 Build 0)  -->
<svg version="1.1" id="Layer_1" xmlns="http://www.w3.org/2000/svg" xmlns:xlink="http://www.w3.org/1999/xlink" x="0px" y="0px"
	 viewBox="0 0 800 800" style="enable-background:new 0 0 800 800;" xml:space="preserve">
<style type="text/css">
	.st0{opacity:0.7;fill:#C7C8CA;enable-background:new    ;}
	.st1{fill:#1C274C;}
</style>
<path class="st0" d="M466.7,133.3H333.3c-125.7,0-188.6,0-227.6,39.1C66.7,211.4,66.7,274.3,66.7,400c0,125.7,0,188.6,39.1,227.6
	c39.1,39.1,101.9,39.1,227.6,39.1h133.3c125.7,0,188.6,0,227.6-39.1c39.1-39,39.1-101.9,39.1-227.6c0-125.7,0-188.6-39.1-227.6
	C655.2,133.3,592.4,133.3,466.7,133.3z"/>
<path class="st1" d="M441.7,300c0-13.8,11.2-25,25-25h166.7c13.8,0,25,11.2,25,25s-11.2,25-25,25H466.7
	C452.9,325,441.7,313.8,441.7,300z"/>
<path class="st1" d="M475,400c0-13.8,11.2-25,25-25h133.3c13.8,0,25,11.2,25,25c0,13.8-11.2,25-25,25H500
	C486.2,425,475,413.8,475,400z"/>
<path class="st1" d="M508.3,500c0-13.8,11.2-25,25-25h100c13.8,0,25,11.2,25,25c0,13.8-11.2,25-25,25h-100
	C519.5,525,508.3,513.8,508.3,500z"/>
<path class="st1" d="M300,366.7c36.8,0,66.7-29.8,66.7-66.7c0-36.8-29.8-66.7-66.7-66.7c-36.8,0-66.7,29.8-66.7,66.7
	C233.3,336.8,263.2,366.7,300,366.7z"/>
<path class="st1" d="M300,566.7c133.3,0,133.3-29.8,133.3-66.7c0-36.8-59.7-66.7-133.3-66.7c-73.6,0-133.3,29.8-133.3,66.7
	C166.7,536.8,166.7,566.7,300,566.7z"/>
</svg>
