<?xml version="1.0" encoding="utf-8"?>
<!-- Generator: Adobe Illustrator 25.4.1, SVG Export Plug-In . SVG Version: 6.00 Build 0)  -->
<svg version="1.1" id="Layer_1" xmlns="http://www.w3.org/2000/svg" xmlns:xlink="http://www.w3.org/1999/xlink" x="0px" y="0px"
	 viewBox="0 0 800 800" style="enable-background:new 0 0 800 800;" xml:space="preserve">
<style type="text/css">
	.st0{fill:#616162;}
	.st1{fill:#C0C2C4;}
</style>
<path class="st0" d="M394,534.8c-13.5,0-26.4,5.4-35.9,14.9s-14.9,22.5-14.9,35.9v99.1H445v-99.1c0-13.5-5.4-26.4-15-36
	C420.5,540.1,407.5,534.8,394,534.8z"/>
<path class="st1" d="M709,324.8l-81.4-61l-38.6-29L442.9,125c-14.1-10.5-31.2-16.1-48.8-16.1c-17.6,0-34.7,5.7-48.8,16.1l-126.5,95
	l-57.1,42.8c-3.8,2.8-7.3,6-10.4,9.5l-72.5,56.2c-5.2,4.1-8.6,10.1-9.5,16.6c-0.8,6.6,0.9,13.2,5,18.5c2.4,3,5.4,5.4,8.8,7.1
	c3.4,1.7,7.2,2.5,11.1,2.5c5.5,0,10.9-1.8,15.3-5.2l19.7-15.4v250.8c0,21.5,8.6,42.2,23.8,57.4c15.2,15.2,35.9,23.8,57.4,23.8h82.8
	v-99.1c0-26.7,10.7-52.4,29.6-71.3c18.9-18.9,44.6-29.5,71.3-29.6c26.8,0,52.4,10.6,71.4,29.5c18.9,18.9,29.6,44.6,29.6,71.3v99.1
	h82.9c21.5,0,42.2-8.6,57.4-23.8c15.2-15.2,23.8-35.9,23.8-57.4V349.8l19.9,14.9c4.3,3.3,9.6,5,15,5c3.9,0,7.7-0.9,11.2-2.6
	c3.5-1.7,6.5-4.3,8.8-7.4c2-2.6,3.4-5.6,4.2-8.8s1-6.5,0.5-9.7s-1.6-6.4-3.2-9.2C713.9,329.2,711.6,326.7,709,324.8z"/>
</svg>
