<?xml version="1.0" encoding="utf-8"?>
<!-- Generator: Adobe Illustrator 25.4.1, SVG Export Plug-In . SVG Version: 6.00 Build 0)  -->
<svg version="1.1" id="Layer_1" xmlns="http://www.w3.org/2000/svg" xmlns:xlink="http://www.w3.org/1999/xlink" x="0px" y="0px"
	 viewBox="0 0 800 800" style="enable-background:new 0 0 800 800;" xml:space="preserve">
<style type="text/css">
	.st0{fill:#292D32;}
	.st1{opacity:0.7;fill:#C9CACC;enable-background:new    ;}
</style>
<path class="st0" d="M708.3,733.3H91.7c-13.7,0-25-11.3-25-25c0-13.7,11.3-25,25-25h616.7c13.7,0,25,11.3,25,25
	C733.3,722,722,733.3,708.3,733.3z"/>
<path class="st1" d="M686.4,456.7l-241,241C398,745,321.7,745,274.7,698L121,544.3l412-412L686.7,286
	C733.7,333,733.7,409.3,686.4,456.7z"/>
<path class="st0" d="M533,132.3l-412.3,412L90.4,514c-47-47-47-123.3,0.3-170.7l241-241C379,55,455.4,55,502.4,102L533,132.3z"/>
<path class="st0" d="M429.7,586.7l-45,45c-9.3,9.3-24.3,9.3-33.7,0c-9.3-9.3-9.3-24.3,0-33.7l45-45c9.3-9.3,24.3-9.3,33.7,0
	C439,562.3,439,577.3,429.7,586.7z"/>
<path class="st0" d="M575.6,440.7L486,530.3c-9.3,9.3-24.3,9.3-33.7,0c-9.3-9.3-9.3-24.3,0-33.7L542,407c9.3-9.3,24.3-9.3,33.7,0
	C584.6,416.3,584.6,431.3,575.6,440.7z"/>
</svg>
