<?xml version="1.0" encoding="utf-8"?>
<!-- Generator: Adobe Illustrator 25.4.1, SVG Export Plug-In . SVG Version: 6.00 Build 0)  -->
<svg version="1.1" id="Layer_1" xmlns="http://www.w3.org/2000/svg" xmlns:xlink="http://www.w3.org/1999/xlink" x="0px" y="0px"
	 viewBox="0 0 800 800" style="enable-background:new 0 0 800 800;" xml:space="preserve">
<style type="text/css">
	.st0{fill:#292D32;}
	.st1{opacity:0.7;fill:#CBCCCE;enable-background:new    ;}
</style>
<path class="st0" d="M199,33.3h-98c-42.3,0-67.7,25.3-67.7,67.7v98c0,42.3,25.3,67.7,67.7,67.7h98c42.3,0,67.7-25.3,67.7-67.7v-98
	C266.7,58.7,241.3,33.3,199,33.3z M215.7,185.3c8.3,8.3,8.3,22,0,30.3c-4.3,4-10,6-15.3,6c-5.3,0-10.7-2-15-6l-35.7-35.3L115,215.7
	c-4.3,4-9.7,6-15.7,6c-5.3,0-10.7-2-15-6c-8.3-8.3-8.3-22,0-30.3L120,150l-35.3-35c-8.3-8.3-8.3-22,0-30.3s22-8.3,30.3,0l34.7,35.3
	L185,84.7c8.3-8.3,22-8.3,30.3,0s8.3,22,0,30.3l-35,35L215.7,185.3z"/>
<path class="st1" d="M554.3,66.7h-295c4.7,9.7,7.3,21,7.3,34.3v98c0,42.3-25.3,67.7-67.7,67.7h-98c-6.3,0-12-0.7-17.7-2V571
	c0,89.7,72.7,162.3,162.3,162.3h265.7c5.7,0,11.3-2,15.7-6.7c49.3-49.7,135.3-136.3,183.7-185c4.3-4.3,6-9.3,6-14.3V229
	C716.7,139.3,644,66.7,554.3,66.7z"/>
<path class="st0" d="M716.6,527.3c0,5-1.7,10-6,14.3C662.3,590.3,576.3,677,527,726.7c-4.3,4.7-10,6.7-15.7,6.7
	c-11,0-21.7-8.7-21.7-21.3V595.3c0-48.7,41.3-89,92-89c31.7-0.3,75.7-0.3,113.3-0.3C708,506,716.6,516.3,716.6,527.3z"/>
<path class="st0" d="M492.6,423.7H245.3c-14,0-25-11.3-25-25s11.3-25,25-25h247.3c14,0,25,11.3,25,25S506.6,423.7,492.6,423.7z"/>
<path class="st0" d="M400,547.3H245.3c-14,0-25-11.3-25-25c0-14,11.3-25,25-25H400c14,0,25,11.3,25,25C425,536,414,547.3,400,547.3z
	"/>
</svg>
