<?xml version="1.0" encoding="utf-8"?>
<!-- Generator: Adobe Illustrator 25.4.1, SVG Export Plug-In . SVG Version: 6.00 Build 0)  -->
<svg version="1.1" id="Layer_1" xmlns="http://www.w3.org/2000/svg" xmlns:xlink="http://www.w3.org/1999/xlink" x="0px" y="0px"
	 viewBox="0 0 800 800" style="enable-background:new 0 0 800 800;" xml:space="preserve">
<style type="text/css">
	.st0{opacity:0.7;}
	.st1{fill-rule:evenodd;clip-rule:evenodd;fill:#D3D5D6;}
	.st2{fill:#1C274C;}
</style>
<g class="st0">
	<path class="st1" d="M466.7,733.3H333.3c-125.7,0-188.6,0-227.6-39.1c-39.1-39-39.1-101.9-39.1-227.6V333.3
		c0-125.7,0-188.6,39.1-227.6C144.8,66.7,208,66.7,334.3,66.7c20.2,0,36.4,0,50,0.6c-0.4,2.7-0.7,5.4-0.7,8.1l-0.3,94.5
		c0,36.6,0,68.9,3.5,94.9c3.8,28.2,12.5,56.5,35.6,79.5c23,23,51.3,31.8,79.5,35.6c26.1,3.5,58.4,3.5,94.9,3.5h3.2h131.9
		c1.4,17.8,1.4,39.7,1.4,68.8v14.6c0,125.7,0,188.6-39.1,227.6C655.2,733.3,592.4,733.3,466.7,733.3z"/>
</g>
<path class="st2" d="M200,458.3c-13.8,0-25,11.2-25,25s11.2,25,25,25h266.7c13.8,0,25-11.2,25-25s-11.2-25-25-25H200z"/>
<path class="st2" d="M200,575c-13.8,0-25,11.2-25,25c0,13.8,11.2,25,25,25h183.3c13.8,0,25-11.2,25-25c0-13.8-11.2-25-25-25H200z"/>
<path class="st2" d="M383.6,75.3l-0.3,94.5c0,36.6,0,68.9,3.5,94.9c3.8,28.2,12.5,56.5,35.6,79.5c23,23,51.3,31.8,79.5,35.6
	c26,3.5,58.4,3.5,94.9,3.5h135.1c0.4,5.2,0.7,10.7,0.9,16.7h0.5c0-8.9,0-13.4-0.3-18.6c-1.9-29.8-14.3-64-32-88.1
	c-3.1-4.2-5.2-6.8-9.5-11.9c-26.4-31.6-61.2-71-91.6-98.1c-27-24.1-64-50.5-96.3-72c-27.7-18.5-41.6-27.8-60.6-34.7
	c-5-1.8-11.7-3.8-16.9-5.1c-12.8-3.2-25.3-4.2-42.8-4.6L383.6,75.3z"/>
</svg>
