<?xml version="1.0" encoding="utf-8"?>
<!-- Generator: Adobe Illustrator 25.4.1, SVG Export Plug-In . SVG Version: 6.00 Build 0)  -->
<svg version="1.1" id="Layer_1" xmlns="http://www.w3.org/2000/svg" xmlns:xlink="http://www.w3.org/1999/xlink" x="0px" y="0px"
	 viewBox="0 0 800 800" style="enable-background:new 0 0 800 800;" xml:space="preserve">
<style type="text/css">
	.st0{opacity:0.7;fill:#C2C4C6;enable-background:new    ;}
	.st1{fill:#1C274C;}
</style>
<path class="st0" d="M733.3,400c0,157.1,0,235.7-48.8,284.5c-48.8,48.8-127.4,48.8-284.5,48.8c-157.1,0-235.7,0-284.5-48.8
	C66.7,635.7,66.7,557.1,66.7,400c0-157.1,0-235.7,48.8-284.5C164.3,66.7,242.9,66.7,400,66.7c157.1,0,235.7,0,284.5,48.8
	C733.3,164.3,733.3,242.9,733.3,400z"/>
<path class="st1" d="M233.3,558.3c-13.8,0-25,11.2-25,25s11.2,25,25,25h200c13.8,0,25-11.2,25-25s-11.2-25-25-25H233.3z"/>
<path class="st1" d="M233.3,441.7c-13.8,0-25,11.2-25,25c0,13.8,11.2,25,25,25h300c13.8,0,25-11.2,25-25c0-13.8-11.2-25-25-25H233.3
	z"/>
<path class="st1" d="M733.3,166.7c0,55.2-44.8,100-100,100c-55.2,0-100-44.8-100-100s44.8-100,100-100
	C688.6,66.7,733.3,111.4,733.3,166.7z"/>
</svg>
