<?xml version="1.0" encoding="utf-8"?>
<!-- Generator: Adobe Illustrator 25.4.1, SVG Export Plug-In . SVG Version: 6.00 Build 0)  -->
<svg version="1.1" id="Layer_1" xmlns="http://www.w3.org/2000/svg" xmlns:xlink="http://www.w3.org/1999/xlink" x="0px" y="0px"
	 viewBox="0 0 800 800" style="enable-background:new 0 0 800 800;" xml:space="preserve">
<style type="text/css">
	.st0{opacity:0.7;fill:#BABCBE;enable-background:new    ;}
	.st1{fill:#292D32;}
</style>
<path class="st0" d="M666.7,275v325c0,100-59.7,133.3-133.3,133.3H266.7C193,733.3,133.3,700,133.3,600V275
	c0-108.3,59.7-133.3,133.3-133.3c0,20.7,8.3,39.3,22,53c13.7,13.7,32.3,22,53,22h116.7c41.3,0,75-33.7,75-75
	C607,141.7,666.7,166.7,666.7,275z"/>
<path class="st1" d="M533.3,141.7c0,41.3-33.7,75-75,75H341.7c-20.7,0-39.3-8.3-53-22c-13.7-13.7-22-32.3-22-53
	c0-41.3,33.7-75,75-75h116.7c20.7,0,39.3,8.3,53,22C525,102.3,533.3,121,533.3,141.7z"/>
<path class="st1" d="M400,458.3H266.7c-13.7,0-25-11.3-25-25s11.3-25,25-25H400c13.7,0,25,11.3,25,25S413.7,458.3,400,458.3z"/>
<path class="st1" d="M533.3,591.7H266.7c-13.7,0-25-11.3-25-25c0-13.7,11.3-25,25-25h266.7c13.7,0,25,11.3,25,25
	C558.3,580.3,547,591.7,533.3,591.7z"/>
</svg>
